<?xml version="1.0" encoding="iso-8859-1"?>
<!-- Generator: Adobe Illustrator 19.0.0, SVG Export Plug-In . SVG Version: 6.00 Build 0)  -->
<!-- License: CC0. Made by SVG Repo: https://www.svgrepo.com/svg/171572/analytics -->
<svg version="1.1" id="Layer_1" xmlns="http://www.w3.org/2000/svg" xmlns:xlink="http://www.w3.org/1999/xlink" x="0px" y="0px"
	 viewBox="0 0 512 512" style="enable-background:new 0 0 512 512;" xml:space="preserve">
<path style="fill:#464655;" d="M494.345,39.724H17.655C7.905,39.724,0,47.628,0,57.379v317.793c0,9.75,7.905,17.655,17.655,17.655
	h476.69c9.75,0,17.655-7.905,17.655-17.655V57.379C512,47.628,504.095,39.724,494.345,39.724z M485.517,313.379H26.483V66.207
	h459.034V313.379z"/>
<path style="fill:#C7CFE2;" d="M0,339.862v35.31c0,9.751,7.904,17.655,17.655,17.655h476.69c9.751,0,17.655-7.904,17.655-17.655
	v-35.31H0z"/>
<polygon style="fill:#AFB9D2;" points="326.621,463.448 185.379,463.448 194.207,392.828 317.793,392.828 "/>
<g>
	<polygon style="fill:#959CB3;" points="320,410.483 317.793,392.828 194.207,392.828 192,410.483 	"/>
	<circle style="fill:#959CB3;" cx="256" cy="366.345" r="13.241"/>
</g>
<path style="fill:#C7CFE2;" d="M326.621,472.276H185.379c-4.875,0-8.828-3.953-8.828-8.828l0,0c0-4.875,3.953-8.828,8.828-8.828
	h141.241c4.875,0,8.828,3.953,8.828,8.828l0,0C335.448,468.323,331.496,472.276,326.621,472.276z"/>
<path style="fill:#FFE182;" d="M132.414,163.31h-35.31c-4.875,0-8.828,3.953-8.828,8.828v105.931c0,4.875,3.953,8.828,8.828,8.828
	h35.31c4.875,0,8.828-3.953,8.828-8.828V172.138C141.241,167.263,137.289,163.31,132.414,163.31z"/>
<path style="fill:#FF6464;" d="M203.034,128h-35.31c-4.875,0-8.828,3.953-8.828,8.828v141.241c0,4.875,3.953,8.828,8.828,8.828
	h35.31c4.875,0,8.828-3.953,8.828-8.828V136.828C211.862,131.953,207.91,128,203.034,128z"/>
<path style="fill:#C3E678;" d="M273.655,92.69h-35.31c-4.875,0-8.828,3.953-8.828,8.828v176.552c0,4.875,3.953,8.828,8.828,8.828
	h35.31c4.875,0,8.828-3.953,8.828-8.828V101.517C282.483,96.642,278.53,92.69,273.655,92.69z"/>
<path style="fill:#AAEBFA;" d="M344.276,207.448h-35.31c-4.875,0-8.828,3.953-8.828,8.828v61.793c0,4.875,3.953,8.828,8.828,8.828
	h35.31c4.875,0,8.828-3.953,8.828-8.828v-61.793C353.103,211.401,349.151,207.448,344.276,207.448z"/>
<path style="fill:#C3B4FA;" d="M414.897,163.31h-35.31c-4.875,0-8.828,3.953-8.828,8.828v105.931c0,4.875,3.953,8.828,8.828,8.828
	h35.31c4.875,0,8.828-3.953,8.828-8.828V172.138C423.724,167.263,419.772,163.31,414.897,163.31z"/>
<path style="fill:#FFCD64;" d="M114.759,198.621L114.759,198.621c-4.875,0-8.828,3.953-8.828,8.828v79.448h17.655v-79.448
	C123.586,202.573,119.634,198.621,114.759,198.621z"/>
<path style="fill:#D2555A;" d="M185.379,163.31L185.379,163.31c-4.875,0-8.828,3.953-8.828,8.828v114.759h17.655V172.138
	C194.207,167.263,190.254,163.31,185.379,163.31z"/>
<path style="fill:#A0CD5A;" d="M256,128L256,128c-4.875,0-8.828,3.953-8.828,8.828v150.069h17.655V136.828
	C264.828,131.953,260.875,128,256,128z"/>
<path style="fill:#78CDE6;" d="M317.793,251.586v35.31h17.655v-35.31c0-4.875-3.953-8.828-8.828-8.828l0,0
	C321.746,242.759,317.793,246.711,317.793,251.586z"/>
<path style="fill:#AAA0FF;" d="M397.241,198.621L397.241,198.621c-4.875,0-8.828,3.953-8.828,8.828v79.448h17.655v-79.448
	C406.069,202.573,402.116,198.621,397.241,198.621z"/>
</svg>
